<?xml version="1.0" encoding="UTF-8" standalone="no"?>
<svg
   xmlns:dc="http://purl.org/dc/elements/1.1/"
   xmlns:cc="http://creativecommons.org/ns#"
   xmlns:rdf="http://www.w3.org/1999/02/22-rdf-syntax-ns#"
   xmlns:svg="http://www.w3.org/2000/svg"
   xmlns="http://www.w3.org/2000/svg"
   xmlns:xlink="http://www.w3.org/1999/xlink"
   xmlns:sodipodi="http://sodipodi.sourceforge.net/DTD/sodipodi-0.dtd"
   xmlns:inkscape="http://www.inkscape.org/namespaces/inkscape"
   sodipodi:docname="icon.svg"
   inkscape:version="1.0 (4035a4fb49, 2020-05-01)"
   id="svg8"
   version="1.1"
   viewBox="0 0 210 297"
   height="297mm"
   width="210mm">
  <defs
     id="defs2">
    <linearGradient
       id="linearGradient2513"
       inkscape:collect="always">
      <stop
         id="stop2509"
         offset="0"
         style="stop-color:#8080ff;stop-opacity:1" />
      <stop
         id="stop2511"
         offset="1"
         style="stop-color:#ececec;stop-opacity:0;" />
    </linearGradient>
    <linearGradient
       gradientTransform="translate(9.7587003,4.2333335)"
       gradientUnits="userSpaceOnUse"
       y2="103.39962"
       x2="42.439175"
       y1="119.59212"
       x1="93.757507"
       id="linearGradient2515"
       xlink:href="#linearGradient2513"
       inkscape:collect="always" />
    <filter
       height="1.094328"
       y="-0.047164022"
       width="1.094328"
       x="-0.047164022"
       id="filter2688"
       style="color-interpolation-filters:sRGB"
       inkscape:collect="always">
      <feGaussianBlur
         id="feGaussianBlur2690"
         stdDeviation="2.5700311"
         inkscape:collect="always" />
    </filter>
    <filter
       height="1.0623875"
       y="-0.031193749"
       width="1.0529842"
       x="-0.026492109"
       id="filter3104"
       style="color-interpolation-filters:sRGB"
       inkscape:collect="always">
      <feGaussianBlur
         id="feGaussianBlur3106"
         stdDeviation="1.0386557"
         inkscape:collect="always" />
    </filter>
    <filter
       height="1.1845203"
       y="-0.092260165"
       width="1.1622371"
       x="-0.081118564"
       id="filter3196"
       style="color-interpolation-filters:sRGB"
       inkscape:collect="always">
      <feGaussianBlur
         id="feGaussianBlur3198"
         stdDeviation="3.1061774"
         inkscape:collect="always" />
    </filter>
  </defs>
  <sodipodi:namedview
     inkscape:window-maximized="1"
     inkscape:window-y="-6"
     inkscape:window-x="-6"
     inkscape:window-height="1010"
     inkscape:window-width="1920"
     showgrid="false"
     inkscape:document-rotation="0"
     inkscape:current-layer="layer1"
     inkscape:document-units="mm"
     inkscape:cy="561.25984"
     inkscape:cx="378.76684"
     inkscape:zoom="0.74653479"
     inkscape:pageshadow="2"
     inkscape:pageopacity="0.0"
     borderopacity="1.0"
     bordercolor="#666666"
     pagecolor="#ffffff"
     id="base" />
  <metadata
     id="metadata5">
    <rdf:RDF>
      <cc:Work
         rdf:about="">
        <dc:format>image/svg+xml</dc:format>
        <dc:type
           rdf:resource="http://purl.org/dc/dcmitype/StillImage" />
        <dc:title></dc:title>
      </cc:Work>
    </rdf:RDF>
  </metadata>
  <g
     id="layer1"
     inkscape:groupmode="layer"
     inkscape:label="Livello 1">
    <g
       style="font-style:normal;font-weight:normal;font-size:10.5833px;line-height:1.25;font-family:sans-serif;fill:#000000;fill-opacity:1;stroke:none;stroke-width:0.264583"
       id="text905" />
    <g
       id="g3239">
      <rect
         ry="10.986874"
         rx="0"
         y="60.774857"
         x="36.674599"
         height="130.77924"
         width="130.77924"
         id="rect1951-0"
         style="opacity:0.306122;fill:#000000;fill-opacity:1;stroke:none;stroke-width:1.165;stroke-miterlimit:4;stroke-dasharray:none;stroke-opacity:1;filter:url(#filter2688)"
         transform="matrix(0.91332494,0,0,0.91332494,2.6441548,17.137581)" />
      <rect
         style="fill:#c6afe9;fill-opacity:1;stroke:none;stroke-width:1.0545;stroke-miterlimit:4;stroke-dasharray:none;stroke-opacity:1"
         id="rect1951"
         width="118.3747"
         height="118.3747"
         x="35.087112"
         y="71.591888"
         rx="0"
         ry="9.9447584" />
      <path
         style="fill:url(#linearGradient2515);fill-opacity:1;stroke:none;stroke-width:0.264583px;stroke-linecap:butt;stroke-linejoin:miter;stroke-opacity:1"
         d="m 43.1899,90.660125 82.50164,8.376688 c 0,0 7.97828,-0.321402 7.80107,8.361797 -0.17721,8.68317 -9.2578,44.44871 -9.2578,44.44871 0,0 -0.35441,9.92363 -5.49343,13.29057 -5.13903,3.36695 -4.07578,3.18974 -14.17661,0.70883 -10.10082,-2.4809 -58.29405,-21.61214 -58.29405,-21.61214 z"
         id="path2005"
         sodipodi:nodetypes="ccscsscc" />
      <path
         sodipodi:nodetypes="ccscsccscsc"
         id="path1018-1-8-3"
         d="m 74.41053,114.66414 9.499751,2.99153 c 0,0 1.221396,0.63142 1.320512,1.86721 0.08339,1.03969 -1.554731,7.61414 -1.554731,7.61414 0,0 -0.4477,1.4531 -2.127851,1.48544 -1.518514,0.0292 -16.792504,-3.46712 -16.792504,-3.46712 l 17.402283,4.48021 c 0,0 2.07318,0.16594 2.670812,-2.25194 2.165041,-8.75923 1.14039,-9.13081 1.14039,-9.13081 0,0 -0.392229,-0.512 -1.334134,-0.99709 -1.117089,-0.57528 -10.224528,-2.59157 -10.224528,-2.59157 z"
         style="fill:#0089ff;fill-opacity:1;stroke:none;stroke-width:0.0285522px;stroke-linecap:butt;stroke-linejoin:miter;stroke-opacity:1" />
      <path
         style="opacity:0.565598;fill:#0000ff;stroke:none;stroke-width:0.184397px;stroke-linecap:butt;stroke-linejoin:miter;stroke-opacity:1;filter:url(#filter3104)"
         d="M 43.535866,97.131414 111.49656,88.5545 c 0,0 7.57232,0.304646 9.89049,7.897274 1.95035,6.387926 0.72814,52.894856 0.72814,52.894856 0,0 -1.08072,11.63898 -12.03678,12.0583 -10.956054,0.41933 -68.717264,-9.69545 -68.717264,-9.69545 l 65.885834,12.7234 c 0,0 17.26301,1.34 18.03933,-14.06107 2.90384,-57.608004 -0.88407,-58.602706 -0.88407,-58.602706 0,0 -2.41677,-4.213189 -9.08827,-5.986648 -7.9123,-2.103294 -71.778104,11.348958 -71.778104,11.348958 z"
         id="path1018"
         sodipodi:nodetypes="ccscsccscsc"
         transform="rotate(12.067965,70.576747,172.38595)" />
      <text
         xml:space="preserve"
         style="font-style:normal;font-weight:normal;font-size:13.2536px;line-height:1.25;font-family:sans-serif;fill:#0000ff;fill-opacity:1;stroke:none;stroke-width:0.331342"
         x="98.303818"
         y="107.13984"
         id="text1026"
         transform="rotate(12.067965)"><tspan
           sodipodi:role="line"
           id="tspan1024"
           x="98.303818"
           y="107.13984"
           style="fill:#0000ff;stroke-width:0.331342">+</tspan></text>
      <text
         xml:space="preserve"
         style="font-style:normal;font-weight:normal;font-size:14.1657px;line-height:1.25;font-family:sans-serif;fill:#0000ff;fill-opacity:1;stroke:none;stroke-width:0.354143"
         x="131.54753"
         y="89.636383"
         id="text1030"
         transform="matrix(0.8669431,0.18534956,-0.23583025,1.1030585,0,0)"><tspan
           sodipodi:role="line"
           id="tspan1028"
           x="131.54753"
           y="89.636383"
           style="fill:#0000ff;stroke-width:0.354143">_</tspan></text>
      <text
         xml:space="preserve"
         style="font-style:normal;font-weight:normal;font-size:10.9151px;line-height:1.25;font-family:sans-serif;fill:#0000ff;fill-opacity:1;stroke:none;stroke-width:0.272877"
         x="88.291"
         y="167.97853"
         id="text1034"
         transform="matrix(1.310575,0.28019659,-0.1560013,0.7296713,0,0)"><tspan
           sodipodi:role="line"
           id="tspan1032"
           x="88.291"
           y="167.97853"
           style="fill:#0000ff;stroke-width:0.272877">/</tspan></text>
      <text
         xml:space="preserve"
         style="font-style:normal;font-weight:normal;font-size:17.8975px;line-height:1.25;font-family:sans-serif;fill:#0000ff;fill-opacity:1;stroke:none;stroke-width:0.447438"
         x="98.109314"
         y="131.49274"
         id="text1038"
         transform="rotate(12.067965)"><tspan
           sodipodi:role="line"
           id="tspan1036"
           x="98.109314"
           y="131.49274"
           style="fill:#0000ff;stroke-width:0.447438">*</tspan></text>
      <text
         xml:space="preserve"
         style="font-style:normal;font-weight:normal;font-size:13.5907px;line-height:1.25;font-family:sans-serif;fill:#0000ff;fill-opacity:1;stroke:none;stroke-width:0.339768"
         x="135.37656"
         y="118.2543"
         id="text1042"
         transform="rotate(12.067965)"><tspan
           sodipodi:role="line"
           id="tspan1040"
           x="135.37656"
           y="118.2543"
           style="fill:#0000ff;stroke-width:0.339768">=</tspan></text>
      <path
         sodipodi:nodetypes="ccscsccscsc"
         id="path1018-9"
         d="m 67.651066,99.397451 51.002514,4.590829 c 0,0 5.03781,1.13622 6.28225,2.8772 1.04696,1.46472 -1.61516,9.92973 -1.61516,9.92973 0,0 0.23716,1.83098 -7.08601,0.34676 -7.32319,-1.48418 -49.396325,-9.55472 -49.396325,-9.55472 l 45.967665,9.89052 c 0,0 11.45937,2.71027 12.58876,-0.04 4.22448,-10.28742 1.73786,-11.01227 1.73786,-11.01227 0,0 -1.4444,-1.12724 -5.82315,-2.40789 -5.19314,-1.51886 -53.658402,-4.620179 -53.658402,-4.620179 z"
         style="fill:#0000ff;stroke:none;stroke-width:0.0663692px;stroke-linecap:butt;stroke-linejoin:miter;stroke-opacity:1" />
      <path
         style="fill:#0000ff;stroke:none;stroke-width:0.0344472px;stroke-linecap:butt;stroke-linejoin:miter;stroke-opacity:1"
         d="m 61.412681,111.88593 23.126082,5.46091 c 0,0 1.489588,0.37216 1.675603,1.749 0.156486,1.15841 -1.760197,8.93878 -1.760197,8.93878 0,0 -0.633222,1.91431 -2.819425,1.52076 -2.186204,-0.39357 -22.571908,-5.94216 -22.571908,-5.94216 l 21.901792,6.33214 c 0,0 3.372675,0.95704 4.081032,-1.60373 2.649626,-9.57865 1.934812,-9.90665 1.934812,-9.90665 0,0 -0.327225,-0.81192 -1.585425,-1.39324 -1.492216,-0.68943 -23.982374,-5.15578 -23.982374,-5.15578 z"
         id="path1018-9-5"
         sodipodi:nodetypes="ccscsccscscc" />
      <path
         sodipodi:nodetypes="ccscsccscsc"
         id="path1018-1"
         d="m 60.508813,93.07607 65.182737,5.960745 c 0,0 6.76923,-0.114404 7.37278,7.778875 0.5078,6.64088 -10.44723,52.23132 -10.44723,52.23132 0,0 -2.4416,9.88145 -12.88411,8.07768 -10.442504,-1.80377 -63.46227,-22.89011 -63.46227,-22.89011 l 59.84678,26.71205 c 0,0 16.38896,4.87419 20.34261,-10.02965 14.78869,-55.74816 11.0632,-57.56184 11.0632,-57.56184 0,0 -1.40328,-4.608442 -7.33791,-7.690782 C 123.14703,92.00875 60.508813,93.07607 60.508813,93.07607 Z"
         style="fill:#0017c9;fill-opacity:1;stroke:none;stroke-width:0.18128px;stroke-linecap:butt;stroke-linejoin:miter;stroke-opacity:1" />
      <path
         style="fill:#0017c9;fill-opacity:1;stroke:none;stroke-width:0.0285523px;stroke-linecap:butt;stroke-linejoin:miter;stroke-opacity:1"
         d="m 74.41053,114.66414 9.499751,2.99153 c 0,0 1.221396,0.63142 1.320512,1.86721 0.08339,1.03969 -1.554731,7.61414 -1.554731,7.61414 0,0 -0.4477,1.4531 -2.127851,1.48544 -1.518514,0.0292 -16.792504,-3.46712 -16.792504,-3.46712 l 15.084144,4.2296 c 0,0 4.131389,1.56521 4.988951,-2.00133 2.15167,-8.94863 1.14039,-9.13081 1.14039,-9.13081 0,0 -0.392229,-0.512 -1.334134,-0.99709 -1.117089,-0.57528 -10.224528,-2.59157 -10.224528,-2.59157 z"
         id="path1018-1-8"
         sodipodi:nodetypes="ccscsccscsc" />
      <text
         id="text1026-1"
         y="107.53407"
         x="98.093124"
         style="font-style:normal;font-weight:normal;font-size:13.2536px;line-height:1.25;font-family:sans-serif;fill:#ffffff;fill-opacity:1;stroke:none;stroke-width:0.331342"
         xml:space="preserve"
         transform="rotate(12.067965)"><tspan
           style="fill:#ffffff;stroke-width:0.331342"
           y="107.53407"
           x="98.093124"
           id="tspan1024-3"
           sodipodi:role="line">+</tspan></text>
      <text
         id="text1030-1"
         y="89.92321"
         x="131.22263"
         style="font-style:normal;font-weight:normal;font-size:14.1657px;line-height:1.25;font-family:sans-serif;fill:#ffffff;fill-opacity:1;stroke:none;stroke-width:0.354143"
         xml:space="preserve"
         transform="matrix(0.8669431,0.18534956,-0.23583025,1.1030585,0,0)"><tspan
           style="fill:#ffffff;stroke-width:0.354143"
           y="89.92321"
           x="131.22263"
           id="tspan1028-2"
           sodipodi:role="line">_</tspan></text>
      <text
         id="text1038-1"
         y="131.79425"
         x="97.911751"
         style="font-style:normal;font-weight:normal;font-size:17.8975px;line-height:1.25;font-family:sans-serif;fill:#ffffff;fill-opacity:1;stroke:none;stroke-width:0.447438"
         xml:space="preserve"
         transform="rotate(12.067965)"><tspan
           style="fill:#ffffff;stroke-width:0.447438"
           y="131.79425"
           x="97.911751"
           id="tspan1036-3"
           sodipodi:role="line">*</tspan></text>
      <text
         transform="matrix(1.310575,0.28019659,-0.1560013,0.7296713,0,0)"
         id="text1034-9"
         y="168.24657"
         x="87.87262"
         style="font-style:normal;font-weight:normal;font-size:10.9151px;line-height:1.25;font-family:sans-serif;fill:#ffffff;fill-opacity:1;stroke:none;stroke-width:0.272877"
         xml:space="preserve"><tspan
           style="fill:#ffffff;stroke-width:0.272877"
           y="168.24657"
           x="87.87262"
           id="tspan1032-1"
           sodipodi:role="line">/</tspan></text>
      <text
         id="text1042-4"
         y="118.64346"
         x="135.13617"
         style="font-style:normal;font-weight:normal;font-size:13.5907px;line-height:1.25;font-family:sans-serif;fill:#ffffff;fill-opacity:1;stroke:none;stroke-width:0.339768"
         xml:space="preserve"
         transform="rotate(12.067965)"><tspan
           style="fill:#ffffff;stroke-width:0.339768"
           y="118.64346"
           x="135.13617"
           id="tspan1040-7"
           sodipodi:role="line">=</tspan></text>
      <path
         sodipodi:nodetypes="ccscsccscsc"
         id="path1018-9-5-0"
         d="m 58.075412,130.19787 23.225275,5.84454 c 0,0 1.489588,0.37215 1.675604,1.74899 0.156485,1.15842 -1.760197,8.93879 -1.760197,8.93879 0,0 -0.633223,1.91431 -2.819426,1.52076 -2.186204,-0.39358 -22.288655,-8.96222 -22.288655,-8.96222 l 21.61854,9.35219 c 0,0 3.372675,0.95704 4.081032,-1.60372 2.649626,-9.57865 1.934811,-9.90665 1.934811,-9.90665 0,0 -0.327225,-0.81193 -1.585425,-1.39324 -1.492216,-0.68944 -24.081559,-5.53944 -24.081559,-5.53944 z"
         style="fill:#0000ff;stroke:none;stroke-width:0.0344472px;stroke-linecap:butt;stroke-linejoin:miter;stroke-opacity:1" />
      <path
         sodipodi:nodetypes="cscsczsccc"
         id="path1018-1-8-4"
         d="m 80.672205,136.35124 c 0,0 1.221396,0.63142 1.320512,1.8672 0.08339,1.03969 -1.554731,7.61414 -1.554731,7.61414 0,0 -0.4477,1.4531 -2.127851,1.48545 -1.518514,0.0292 -8.94876,-2.48724 -8.94876,-2.48724 0,0 8.365178,3.81013 9.337035,3.5889 0.97186,-0.22124 2.294691,0.0773 2.892322,-2.34054 2.16504,-8.75923 1.14039,-9.13082 1.14039,-9.13082 0,0 -0.392229,-0.512 -1.334134,-0.99708 -8.870843,-2.40833 -11.578591,-2.92571 -0.724783,0.39999 z"
         style="fill:#0017c9;fill-opacity:1;stroke:none;stroke-width:0.0285522px;stroke-linecap:butt;stroke-linejoin:miter;stroke-opacity:1" />
      <path
         sodipodi:nodetypes="ccscsccssscc"
         id="path1018-9-5-7"
         d="m 89.770946,118.03813 13.572854,3.48668 c 0,0 0.872,0.24718 0.83328,1.75254 -0.0326,1.26653 -2.0709,10.10228 -2.0709,10.10228 0,0 -2.351437,2.50484 -0.82324,1.61926 1.13439,-0.65736 -13.119155,-2.7579 -13.119155,-2.7579 l 11.590968,3.64347 c 0,0 2.950107,0.89281 3.755237,-2.00032 2.38794,-8.58071 2.64015,-10.37761 2.34096,-11.75652 -0.23994,-1.10587 -1.0893,-1.35004 -2.75039,-1.93271 -2.48348,-0.87116 -13.329621,-2.15675 -13.329621,-2.15675 z"
         style="fill:#0000ff;stroke:none;stroke-width:0.0281374px;stroke-linecap:butt;stroke-linejoin:miter;stroke-opacity:1" />
      <path
         sodipodi:nodetypes="ccsccscsccc"
         id="path1018-1-8-44"
         d="m 103.51619,123.82549 c -0.0699,1.14184 -1.74458,8.6548 -1.74458,8.6548 0,0 -0.21896,1.25803 -1.22151,1.48694 -0.906127,0.20689 -8.500377,-1.02177 -8.500377,-1.02177 l 7.83401,1.84657 c 0,0 1.911687,0.57532 2.544847,-2.17108 2.29376,-9.94935 1.7273,-10.24311 1.7273,-10.24311 0,0 -0.17435,-0.52195 -0.67858,-0.95092 -0.598,-0.50873 -5.008151,-1.11347 -5.008151,-1.11347 2.470481,0.38592 5.041971,1.86908 5.047041,3.51201 z"
         style="fill:#0017c9;fill-opacity:1;stroke:none;stroke-width:0.0229342px;stroke-linecap:butt;stroke-linejoin:miter;stroke-opacity:1" />
      <path
         style="fill:#0000ff;stroke:none;stroke-width:0.0295347px;stroke-linecap:butt;stroke-linejoin:miter;stroke-opacity:1"
         d="m 86.193338,136.63022 13.560685,3.54362 c 0,0 0.870727,0.25314 0.800517,1.90579 -0.0591,1.39049 -2.290338,11.12872 -2.290338,11.12872 0,0 -0.889747,2.04593 -2.1882,1.86044 -1.298437,-0.18557 -12.065344,-3.94115 -12.065344,-3.94115 l 11.839518,4.8783 c 0,0 2.944653,0.91831 3.813567,-2.27318 2.577127,-9.46563 2.867857,-11.44269 2.596037,-12.9496 -0.218,-1.20852 -1.06606,-1.45878 -2.722407,-2.06361 -2.476385,-0.90427 -13.344045,-2.08928 -13.344045,-2.08928 z"
         id="path1018-9-5-7-9"
         sodipodi:nodetypes="ccscsccssscc" />
      <path
         style="fill:#0017c9;fill-opacity:1;stroke:none;stroke-width:0.0240732px;stroke-linecap:butt;stroke-linejoin:miter;stroke-opacity:1"
         d="m 93.611464,138.59975 c 2.923537,1.0231 6.486356,0.90641 6.321889,4.14198 -0.094,1.25443 -1.986501,9.4867 -1.986501,9.4867 0,0 -0.469667,1.83138 -1.481439,2.10343 -0.914467,0.24588 -8.982303,-1.91425 -8.982303,-1.91425 l 9.207504,3.06388 c 0,0 1.219988,-0.085 1.913115,-3.11194 2.511001,-10.96554 1.948141,-11.27611 1.948141,-11.27611 0,0 -0.16427,-0.56912 -0.661807,-1.02936 -0.590077,-0.54581 -1.961621,-0.82918 -1.961621,-0.82918 z"
         id="path1018-1-8-44-7"
         sodipodi:nodetypes="cccsccscscc" />
      <path
         sodipodi:nodetypes="cccsccsscc"
         id="path1018-9-5-7-9-3"
         d="m 109.58648,122.45704 c 12.91264,2.56557 13.67207,5.88806 13.25243,9.09378 -0.36148,2.80502 -4.79447,22.84151 -4.79447,22.84151 0,0 -1.37171,4.30025 -2.69002,4.20763 -1.31827,-0.0928 -12.9149,-1.53544 -12.9149,-1.53544 l 10.75957,3.65762 c 0,0 4.59952,1.01783 6.19636,-5.57837 4.73605,-19.56364 5.46631,-23.59648 5.50675,-26.56396 0.0324,-2.37986 -0.80076,-2.69964 -2.40308,-3.5572 0,0 -3.25006,-2.48437 -12.91264,-2.56557 z"
         style="fill:#0000ff;stroke:none;stroke-width:0.0423305px;stroke-linecap:butt;stroke-linejoin:miter;stroke-opacity:1" />
      <path
         sodipodi:nodetypes="cccsccccc"
         id="path1018-1-8-44-7-3"
         d="m 115.04825,123.86158 c 5.72808,2.3189 7.86758,2.61983 6.99815,9.15271 -0.36868,2.53931 -4.12275,19.47864 -4.12275,19.47864 0,0 -1.19909,3.45436 -2.00307,4.54324 -2.72149,3.68597 -8.63136,0.62558 -8.63136,0.62558 l 8.61916,1.63447 c 0,0 1.56759,0.69136 2.94506,-5.53643 0.82978,-4.16431 5.87579,-23.46553 4.40511,-25.41469 -1.63037,-3.32339 -8.2103,-4.48352 -8.2103,-4.48352 z"
         style="fill:#0017c9;fill-opacity:1;stroke:none;stroke-width:0.0345029px;stroke-linecap:butt;stroke-linejoin:miter;stroke-opacity:1" />
      <path
         style="fill:#000080;stroke:none;stroke-width:0.0663691px;stroke-linecap:butt;stroke-linejoin:miter;stroke-opacity:1"
         d="m 67.651066,99.397451 52.422584,4.413819 c 0,0 5.03782,1.13617 6.28225,2.87719 1.04697,1.46471 -1.61515,9.92971 -1.61515,9.92971 0,0 -1.18298,2.00801 -8.50615,0.52379 -7.32316,-1.48417 -49.396265,-9.55471 -49.396265,-9.55471 l 47.387735,9.71349 c 0,0 11.45937,2.71027 12.58876,-0.04 4.22448,-10.2874 1.73786,-11.01224 1.73786,-11.01224 0,0 -1.4444,-1.12725 -5.82315,-2.40789 -5.19314,-1.51885 -55.078474,-4.443169 -55.078474,-4.443169 z"
         id="path1018-9-4"
         sodipodi:nodetypes="ccscsccscsc" />
      <path
         sodipodi:nodetypes="ccscsccscsc"
         id="path1018-4"
         d="M 51.700216,88.84289 118.36034,94.729 c 0,0 7.17006,1.90201 7.83373,9.89956 0.55839,6.72859 -10.10544,52.45567 -10.10544,52.45567 0,0 -3.40881,11.27998 -13.9585,9.3785 -10.549667,-1.90147 -63.651574,-24.11351 -63.651574,-24.11351 l 60.329007,26.50895 c 0,0 16.214147,4.97435 20.100437,-10.0899 14.53674,-56.34816 11.12205,-58.13247 11.12205,-58.13247 0,0 -1.44793,-4.67684 -7.45769,-7.84077 -7.1275,-3.75236 -70.872144,-3.95214 -70.872144,-3.95214 z"
         style="opacity:0.973761;mix-blend-mode:normal;fill:#ffffff;stroke:none;stroke-width:0.183246px;stroke-linecap:butt;stroke-linejoin:miter;stroke-opacity:1;filter:url(#filter3196)"
         transform="matrix(1.0426725,0,0,1.045305,8.1726262,-2.0898708)" />
    </g>
  </g>
</svg>
